<svg width="799" height="240" viewBox="0 0 799 240" fill="none" xmlns="http://www.w3.org/2000/svg">
<path d="M290.288 156C289.584 156 289.008 155.776 288.56 155.328C288.112 154.88 287.888 154.304 287.888 153.6V102.144H270.416C269.776 102.144 269.232 101.92 268.784 101.472C268.336 101.024 268.112 100.48 268.112 99.84V91.2C268.112 90.496 268.336 89.92 268.784 89.472C269.232 89.024 269.776 88.8 270.416 88.8H320.72C321.424 88.8 322 89.024 322.448 89.472C322.896 89.92 323.12 90.496 323.12 91.2V99.84C323.12 100.48 322.896 101.024 322.448 101.472C322 101.92 321.424 102.144 320.72 102.144H303.344V153.6C303.344 154.304 303.12 154.88 302.672 155.328C302.224 155.776 301.648 156 300.944 156H290.288ZM337.455 156.96C334.063 156.96 331.023 156.32 328.335 155.04C325.647 153.696 323.503 151.904 321.903 149.664C320.303 147.424 319.503 144.928 319.503 142.176C319.503 137.632 321.327 134.048 324.975 131.424C328.687 128.8 333.551 127.008 339.567 126.048L352.143 124.224V122.496C352.143 120 351.567 118.08 350.415 116.736C349.263 115.392 347.247 114.72 344.367 114.72C342.255 114.72 340.559 115.136 339.279 115.968C337.999 116.8 337.007 117.888 336.303 119.232C335.791 120.064 335.055 120.48 334.095 120.48H324.975C324.271 120.48 323.727 120.288 323.343 119.904C322.959 119.456 322.799 118.944 322.863 118.368C322.863 117.28 323.279 116 324.111 114.528C324.943 113.056 326.223 111.616 327.951 110.208C329.679 108.736 331.887 107.52 334.575 106.56C337.263 105.6 340.559 105.12 344.463 105.12C348.495 105.12 351.951 105.6 354.831 106.56C357.711 107.52 360.015 108.864 361.743 110.592C363.471 112.32 364.751 114.336 365.583 116.64C366.415 118.88 366.831 121.312 366.831 123.936V153.6C366.831 154.304 366.607 154.88 366.159 155.328C365.711 155.776 365.135 156 364.431 156H355.023C354.383 156 353.839 155.776 353.391 155.328C352.943 154.88 352.719 154.304 352.719 153.6V150.048C351.887 151.264 350.767 152.416 349.359 153.504C347.951 154.528 346.255 155.36 344.271 156C342.351 156.64 340.079 156.96 337.455 156.96ZM341.295 146.976C343.407 146.976 345.295 146.528 346.959 145.632C348.623 144.736 349.935 143.36 350.895 141.504C351.855 139.648 352.335 137.312 352.335 134.496V132.864L343.407 134.304C339.951 134.88 337.423 135.744 335.823 136.896C334.223 138.048 333.423 139.456 333.423 141.12C333.423 142.336 333.775 143.392 334.479 144.288C335.247 145.184 336.239 145.856 337.455 146.304C338.671 146.752 339.951 146.976 341.295 146.976ZM398.134 156.96C394.166 156.96 390.742 156.512 387.862 155.616C385.046 154.656 382.742 153.504 380.95 152.16C379.222 150.816 377.91 149.472 377.014 148.128C376.182 146.72 375.734 145.536 375.67 144.576C375.606 143.872 375.83 143.296 376.342 142.848C376.854 142.4 377.366 142.176 377.878 142.176H387.19C387.382 142.176 387.574 142.208 387.766 142.272C387.958 142.336 388.15 142.496 388.342 142.752C389.174 143.328 390.038 144 390.934 144.768C391.83 145.472 392.854 146.08 394.006 146.592C395.222 147.104 396.726 147.36 398.518 147.36C400.63 147.36 402.422 146.944 403.894 146.112C405.366 145.216 406.102 143.968 406.102 142.368C406.102 141.216 405.75 140.256 405.046 139.488C404.406 138.72 403.158 138.016 401.302 137.376C399.446 136.736 396.694 136.032 393.046 135.264C389.59 134.496 386.646 133.472 384.214 132.192C381.782 130.912 379.958 129.312 378.742 127.392C377.526 125.408 376.918 123.04 376.918 120.288C376.918 117.792 377.686 115.392 379.222 113.088C380.822 110.784 383.158 108.896 386.23 107.424C389.302 105.888 393.142 105.12 397.75 105.12C401.27 105.12 404.342 105.568 406.966 106.464C409.654 107.296 411.894 108.384 413.686 109.728C415.478 111.008 416.822 112.352 417.718 113.76C418.678 115.104 419.19 116.288 419.254 117.312C419.318 117.952 419.126 118.496 418.678 118.944C418.23 119.392 417.718 119.616 417.142 119.616H408.598C408.278 119.616 407.99 119.584 407.734 119.52C407.478 119.392 407.254 119.232 407.062 119.04C406.294 118.528 405.494 117.952 404.662 117.312C403.894 116.608 402.966 116 401.878 115.488C400.79 114.976 399.382 114.72 397.654 114.72C395.542 114.72 393.91 115.2 392.758 116.16C391.67 117.056 391.126 118.208 391.126 119.616C391.126 120.512 391.414 121.344 391.99 122.112C392.566 122.88 393.75 123.584 395.542 124.224C397.334 124.864 400.054 125.536 403.702 126.24C408.054 127.008 411.51 128.16 414.07 129.696C416.63 131.232 418.454 133.024 419.542 135.072C420.694 137.056 421.27 139.2 421.27 141.504C421.27 144.512 420.374 147.2 418.582 149.568C416.79 151.872 414.166 153.696 410.71 155.04C407.318 156.32 403.126 156.96 398.134 156.96ZM432.886 156C432.182 156 431.606 155.776 431.158 155.328C430.71 154.88 430.486 154.304 430.486 153.6V90.24C430.486 89.536 430.71 88.96 431.158 88.512C431.606 88.064 432.182 87.84 432.886 87.84H442.294C442.934 87.84 443.478 88.064 443.926 88.512C444.374 88.96 444.598 89.536 444.598 90.24V122.688L459.382 107.712C459.894 107.264 460.342 106.88 460.726 106.56C461.174 106.24 461.846 106.08 462.742 106.08H473.59C474.23 106.08 474.742 106.304 475.125 106.752C475.51 107.136 475.702 107.616 475.702 108.192C475.702 108.448 475.638 108.736 475.51 109.056C475.382 109.376 475.158 109.632 474.838 109.824L456.31 128.448L477.238 152.352C477.814 152.864 478.102 153.376 478.102 153.888C478.102 154.464 477.878 154.976 477.43 155.424C477.046 155.808 476.566 156 475.99 156H464.854C463.894 156 463.19 155.84 462.742 155.52C462.358 155.2 461.91 154.816 461.398 154.368L444.598 135.552V153.6C444.598 154.304 444.374 154.88 443.926 155.328C443.478 155.776 442.934 156 442.294 156H432.886ZM498.413 156C497.709 156 497.133 155.776 496.685 155.328C496.237 154.88 496.013 154.304 496.013 153.6V102.144H478.541C477.901 102.144 477.357 101.92 476.909 101.472C476.461 101.024 476.237 100.48 476.237 99.84V91.2C476.237 90.496 476.461 89.92 476.909 89.472C477.357 89.024 477.901 88.8 478.541 88.8H528.845C529.549 88.8 530.125 89.024 530.573 89.472C531.021 89.92 531.245 90.496 531.245 91.2V99.84C531.245 100.48 531.021 101.024 530.573 101.472C530.125 101.92 529.549 102.144 528.845 102.144H511.469V153.6C511.469 154.304 511.245 154.88 510.797 155.328C510.349 155.776 509.773 156 509.069 156H498.413ZM536.008 156C535.368 156 534.824 155.776 534.376 155.328C533.928 154.88 533.704 154.304 533.704 153.6V108.48C533.704 107.84 533.928 107.296 534.376 106.848C534.824 106.336 535.368 106.08 536.008 106.08H545.416C546.056 106.08 546.6 106.336 547.048 106.848C547.56 107.296 547.816 107.84 547.816 108.48V112.32C549.416 110.336 551.368 108.8 553.672 107.712C556.04 106.624 558.76 106.08 561.832 106.08H565.96C566.6 106.08 567.144 106.304 567.592 106.752C568.04 107.2 568.264 107.776 568.264 108.48V116.736C568.264 117.44 568.04 118.016 567.592 118.464C567.144 118.912 566.6 119.136 565.96 119.136H557.512C554.696 119.136 552.488 119.936 550.888 121.536C549.288 123.072 548.488 125.28 548.488 128.16V153.6C548.488 154.304 548.264 154.88 547.816 155.328C547.368 155.776 546.792 156 546.088 156H536.008ZM589.267 156.96C585.875 156.96 582.835 156.32 580.147 155.04C577.459 153.696 575.315 151.904 573.715 149.664C572.115 147.424 571.315 144.928 571.315 142.176C571.315 137.632 573.139 134.048 576.787 131.424C580.499 128.8 585.363 127.008 591.379 126.048L603.955 124.224V122.496C603.955 120 603.379 118.08 602.227 116.736C601.075 115.392 599.059 114.72 596.179 114.72C594.067 114.72 592.371 115.136 591.091 115.968C589.811 116.8 588.819 117.888 588.115 119.232C587.603 120.064 586.867 120.48 585.907 120.48H576.787C576.083 120.48 575.539 120.288 575.155 119.904C574.771 119.456 574.611 118.944 574.675 118.368C574.675 117.28 575.091 116 575.923 114.528C576.755 113.056 578.035 111.616 579.763 110.208C581.491 108.736 583.699 107.52 586.387 106.56C589.075 105.6 592.371 105.12 596.275 105.12C600.307 105.12 603.763 105.6 606.643 106.56C609.523 107.52 611.827 108.864 613.555 110.592C615.283 112.32 616.563 114.336 617.395 116.64C618.227 118.88 618.643 121.312 618.643 123.936V153.6C618.643 154.304 618.419 154.88 617.971 155.328C617.523 155.776 616.947 156 616.243 156H606.835C606.195 156 605.651 155.776 605.203 155.328C604.755 154.88 604.531 154.304 604.531 153.6V150.048C603.699 151.264 602.579 152.416 601.171 153.504C599.763 154.528 598.067 155.36 596.083 156C594.163 156.64 591.891 156.96 589.267 156.96ZM593.107 146.976C595.219 146.976 597.107 146.528 598.771 145.632C600.435 144.736 601.747 143.36 602.707 141.504C603.667 139.648 604.147 137.312 604.147 134.496V132.864L595.219 134.304C591.763 134.88 589.235 135.744 587.635 136.896C586.035 138.048 585.235 139.456 585.235 141.12C585.235 142.336 585.587 143.392 586.291 144.288C587.059 145.184 588.051 145.856 589.267 146.304C590.483 146.752 591.763 146.976 593.107 146.976ZM652.443 156.96C647.771 156.96 643.643 156.096 640.059 154.368C636.539 152.64 633.755 150.144 631.707 146.88C629.659 143.552 628.539 139.584 628.347 134.976C628.283 133.952 628.251 132.672 628.251 131.136C628.251 129.536 628.283 128.224 628.347 127.2C628.539 122.528 629.627 118.56 631.611 115.296C633.659 111.968 636.475 109.44 640.059 107.712C643.643 105.984 647.771 105.12 652.443 105.12C656.731 105.12 660.379 105.728 663.387 106.944C666.395 108.096 668.859 109.568 670.779 111.36C672.699 113.152 674.107 115.04 675.003 117.024C675.963 118.944 676.475 120.64 676.539 122.112C676.603 122.752 676.379 123.328 675.867 123.84C675.419 124.288 674.875 124.512 674.235 124.512H663.963C663.323 124.512 662.811 124.352 662.427 124.032C662.107 123.648 661.787 123.136 661.467 122.496C660.571 120.256 659.419 118.656 658.011 117.696C656.603 116.736 654.843 116.256 652.731 116.256C649.851 116.256 647.579 117.184 645.915 119.04C644.251 120.896 643.355 123.776 643.227 127.68C643.163 130.176 643.163 132.448 643.227 134.496C643.419 138.464 644.315 141.344 645.915 143.136C647.579 144.928 649.851 145.824 652.731 145.824C654.971 145.824 656.763 145.344 658.107 144.384C659.451 143.424 660.571 141.824 661.467 139.584C661.723 138.944 662.043 138.464 662.427 138.144C662.811 137.76 663.323 137.568 663.963 137.568H674.235C674.875 137.568 675.419 137.824 675.867 138.336C676.379 138.784 676.603 139.328 676.539 139.968C676.475 141.056 676.155 142.336 675.579 143.808C675.067 145.28 674.203 146.784 672.987 148.32C671.835 149.856 670.331 151.296 668.475 152.64C666.619 153.92 664.347 154.976 661.659 155.808C659.035 156.576 655.963 156.96 652.443 156.96ZM688.354 156C687.65 156 687.074 155.776 686.626 155.328C686.178 154.88 685.954 154.304 685.954 153.6V90.24C685.954 89.536 686.178 88.96 686.626 88.512C687.074 88.064 687.65 87.84 688.354 87.84H697.762C698.402 87.84 698.946 88.064 699.394 88.512C699.842 88.96 700.066 89.536 700.066 90.24V122.688L714.85 107.712C715.362 107.264 715.81 106.88 716.194 106.56C716.642 106.24 717.314 106.08 718.21 106.08H729.058C729.698 106.08 730.21 106.304 730.594 106.752C730.978 107.136 731.17 107.616 731.17 108.192C731.17 108.448 731.106 108.736 730.978 109.056C730.85 109.376 730.626 109.632 730.306 109.824L711.778 128.448L732.706 152.352C733.282 152.864 733.57 153.376 733.57 153.888C733.57 154.464 733.346 154.976 732.898 155.424C732.514 155.808 732.034 156 731.458 156H720.322C719.362 156 718.658 155.84 718.21 155.52C717.826 155.2 717.378 154.816 716.866 154.368L700.066 135.552V153.6C700.066 154.304 699.842 154.88 699.394 155.328C698.946 155.776 698.402 156 697.762 156H688.354ZM742.727 156C742.087 156 741.543 155.776 741.095 155.328C740.647 154.88 740.423 154.304 740.423 153.6V108.48C740.423 107.84 740.647 107.296 741.095 106.848C741.543 106.336 742.087 106.08 742.727 106.08H752.135C752.775 106.08 753.319 106.336 753.767 106.848C754.279 107.296 754.535 107.84 754.535 108.48V112.32C756.135 110.336 758.087 108.8 760.391 107.712C762.759 106.624 765.479 106.08 768.551 106.08H772.679C773.319 106.08 773.863 106.304 774.311 106.752C774.759 107.2 774.983 107.776 774.983 108.48V116.736C774.983 117.44 774.759 118.016 774.311 118.464C773.863 118.912 773.319 119.136 772.679 119.136H764.231C761.415 119.136 759.207 119.936 757.607 121.536C756.007 123.072 755.207 125.28 755.207 128.16V153.6C755.207 154.304 754.983 154.88 754.535 155.328C754.087 155.776 753.511 156 752.807 156H742.727Z" fill="#0F1729"/>
<rect x="30" y="32" width="180" height="180" rx="90" fill="#FFFEFE"/>
<path fill-rule="evenodd" clip-rule="evenodd" d="M22.5 120C22.5 66.1522 66.1522 22.5 120 22.5C173.848 22.5 217.5 66.1522 217.5 120C217.5 173.848 173.848 217.5 120 217.5C66.1522 217.5 22.5 173.848 22.5 120ZM156.103 101.859C158.511 98.4887 157.73 93.8046 154.359 91.397C150.989 88.9894 146.305 89.7701 143.897 93.1407L111.543 138.436L95.3033 122.197C92.3744 119.268 87.6256 119.268 84.6967 122.197C81.7678 125.126 81.7678 129.874 84.6967 132.803L107.197 155.303C108.756 156.862 110.921 157.656 113.119 157.474C115.316 157.293 117.322 156.153 118.603 154.359L156.103 101.859Z" fill="url(#paint0_linear_3_104)"/>
<defs>
<linearGradient id="paint0_linear_3_104" x1="120" y1="22.5" x2="120" y2="217.5" gradientUnits="userSpaceOnUse">
<stop stop-color="#FFBE0B"/>
<stop offset="0.320049" stop-color="#FB5607"/>
<stop offset="0.501633" stop-color="#FF006E"/>
<stop offset="0.815679" stop-color="#8338EC"/>
<stop offset="1" stop-color="#3A86FF"/>
</linearGradient>
</defs>
</svg>
