<svg width="300" height="300" viewBox="0 0 300 300" fill="none" xmlns="http://www.w3.org/2000/svg">
<rect width="300" height="300" rx="50" fill="#FBF8F2"/>
<path fill-rule="evenodd" clip-rule="evenodd" d="M60.625 127C60.625 77.6396 100.64 37.625 150 37.625C199.36 37.625 239.375 77.6396 239.375 127C239.375 176.36 199.36 216.375 150 216.375C100.64 216.375 60.625 176.36 60.625 127ZM183.094 110.371C185.301 107.281 184.586 102.988 181.496 100.781C178.406 98.5736 174.113 99.2893 171.906 102.379L142.248 143.9L127.361 129.014C124.677 126.329 120.323 126.329 117.639 129.014C114.954 131.698 114.954 136.052 117.639 138.736L138.264 159.361C139.693 160.79 141.678 161.518 143.692 161.352C145.706 161.185 147.545 160.141 148.719 158.496L183.094 110.371Z" fill="url(#paint0_linear_1_25)"/>
<path d="M73.5804 268C73.3457 268 73.1537 267.925 73.0044 267.776C72.855 267.627 72.7804 267.435 72.7804 267.2V250.048H66.9564C66.743 250.048 66.5617 249.973 66.4124 249.824C66.263 249.675 66.1884 249.493 66.1884 249.28V246.4C66.1884 246.165 66.263 245.973 66.4124 245.824C66.5617 245.675 66.743 245.6 66.9564 245.6H83.7244C83.959 245.6 84.151 245.675 84.3004 245.824C84.4497 245.973 84.5244 246.165 84.5244 246.4V249.28C84.5244 249.493 84.4497 249.675 84.3004 249.824C84.151 249.973 83.959 250.048 83.7244 250.048H77.9324V267.2C77.9324 267.435 77.8577 267.627 77.7084 267.776C77.559 267.925 77.367 268 77.1324 268H73.5804ZM89.3026 268.32C88.172 268.32 87.1586 268.107 86.2626 267.68C85.3666 267.232 84.652 266.635 84.1186 265.888C83.5853 265.141 83.3186 264.309 83.3186 263.392C83.3186 261.877 83.9266 260.683 85.1426 259.808C86.38 258.933 88.0013 258.336 90.0066 258.016L94.1986 257.408V256.832C94.1986 256 94.0066 255.36 93.6226 254.912C93.2386 254.464 92.5666 254.24 91.6066 254.24C90.9026 254.24 90.3373 254.379 89.9106 254.656C89.484 254.933 89.1533 255.296 88.9186 255.744C88.748 256.021 88.5026 256.16 88.1826 256.16H85.1426C84.908 256.16 84.7266 256.096 84.5986 255.968C84.4706 255.819 84.4173 255.648 84.4386 255.456C84.4386 255.093 84.5773 254.667 84.8546 254.176C85.132 253.685 85.5586 253.205 86.1346 252.736C86.7106 252.245 87.4466 251.84 88.3426 251.52C89.2386 251.2 90.3373 251.04 91.6386 251.04C92.9826 251.04 94.1346 251.2 95.0946 251.52C96.0546 251.84 96.8226 252.288 97.3986 252.864C97.9746 253.44 98.4013 254.112 98.6786 254.88C98.956 255.627 99.0946 256.437 99.0946 257.312V267.2C99.0946 267.435 99.02 267.627 98.8706 267.776C98.7213 267.925 98.5293 268 98.2946 268H95.1586C94.9453 268 94.764 267.925 94.6146 267.776C94.4653 267.627 94.3906 267.435 94.3906 267.2V266.016C94.1133 266.421 93.74 266.805 93.2706 267.168C92.8013 267.509 92.236 267.787 91.5746 268C90.9346 268.213 90.1773 268.32 89.3026 268.32ZM90.5826 264.992C91.2866 264.992 91.916 264.843 92.4706 264.544C93.0253 264.245 93.4626 263.787 93.7826 263.168C94.1026 262.549 94.2626 261.771 94.2626 260.832V260.288L91.2866 260.768C90.1346 260.96 89.292 261.248 88.7586 261.632C88.2253 262.016 87.9586 262.485 87.9586 263.04C87.9586 263.445 88.076 263.797 88.3106 264.096C88.5666 264.395 88.8973 264.619 89.3026 264.768C89.708 264.917 90.1346 264.992 90.5826 264.992ZM109.529 268.32C108.206 268.32 107.065 268.171 106.105 267.872C105.166 267.552 104.398 267.168 103.801 266.72C103.225 266.272 102.788 265.824 102.489 265.376C102.212 264.907 102.062 264.512 102.041 264.192C102.02 263.957 102.094 263.765 102.265 263.616C102.436 263.467 102.606 263.392 102.777 263.392H105.881C105.945 263.392 106.009 263.403 106.073 263.424C106.137 263.445 106.201 263.499 106.265 263.584C106.542 263.776 106.83 264 107.129 264.256C107.428 264.491 107.769 264.693 108.153 264.864C108.558 265.035 109.06 265.12 109.657 265.12C110.361 265.12 110.958 264.981 111.449 264.704C111.94 264.405 112.185 263.989 112.185 263.456C112.185 263.072 112.068 262.752 111.833 262.496C111.62 262.24 111.204 262.005 110.585 261.792C109.966 261.579 109.049 261.344 107.833 261.088C106.681 260.832 105.7 260.491 104.889 260.064C104.078 259.637 103.47 259.104 103.065 258.464C102.66 257.803 102.457 257.013 102.457 256.096C102.457 255.264 102.713 254.464 103.225 253.696C103.758 252.928 104.537 252.299 105.561 251.808C106.585 251.296 107.865 251.04 109.401 251.04C110.574 251.04 111.598 251.189 112.473 251.488C113.369 251.765 114.116 252.128 114.713 252.576C115.31 253.003 115.758 253.451 116.057 253.92C116.377 254.368 116.548 254.763 116.569 255.104C116.59 255.317 116.526 255.499 116.377 255.648C116.228 255.797 116.057 255.872 115.865 255.872H113.017C112.91 255.872 112.814 255.861 112.729 255.84C112.644 255.797 112.569 255.744 112.505 255.68C112.249 255.509 111.982 255.317 111.705 255.104C111.449 254.869 111.14 254.667 110.777 254.496C110.414 254.325 109.945 254.24 109.369 254.24C108.665 254.24 108.121 254.4 107.737 254.72C107.374 255.019 107.193 255.403 107.193 255.872C107.193 256.171 107.289 256.448 107.481 256.704C107.673 256.96 108.068 257.195 108.665 257.408C109.262 257.621 110.169 257.845 111.385 258.08C112.836 258.336 113.988 258.72 114.841 259.232C115.694 259.744 116.302 260.341 116.665 261.024C117.049 261.685 117.241 262.4 117.241 263.168C117.241 264.171 116.942 265.067 116.345 265.856C115.748 266.624 114.873 267.232 113.721 267.68C112.59 268.107 111.193 268.32 109.529 268.32ZM121.113 268C120.878 268 120.686 267.925 120.537 267.776C120.388 267.627 120.313 267.435 120.313 267.2V246.08C120.313 245.845 120.388 245.653 120.537 245.504C120.686 245.355 120.878 245.28 121.113 245.28H124.249C124.462 245.28 124.644 245.355 124.793 245.504C124.942 245.653 125.017 245.845 125.017 246.08V256.896L129.945 251.904C130.116 251.755 130.265 251.627 130.393 251.52C130.542 251.413 130.766 251.36 131.065 251.36H134.681C134.894 251.36 135.065 251.435 135.193 251.584C135.321 251.712 135.385 251.872 135.385 252.064C135.385 252.149 135.364 252.245 135.321 252.352C135.278 252.459 135.204 252.544 135.097 252.608L128.921 258.816L135.897 266.784C136.089 266.955 136.185 267.125 136.185 267.296C136.185 267.488 136.11 267.659 135.961 267.808C135.833 267.936 135.673 268 135.481 268H131.769C131.449 268 131.214 267.947 131.065 267.84C130.937 267.733 130.788 267.605 130.617 267.456L125.017 261.184V267.2C125.017 267.435 124.942 267.627 124.793 267.776C124.644 267.925 124.462 268 124.249 268H121.113ZM142.955 268C142.721 268 142.529 267.925 142.379 267.776C142.23 267.627 142.155 267.435 142.155 267.2V250.048H136.331C136.118 250.048 135.937 249.973 135.787 249.824C135.638 249.675 135.563 249.493 135.563 249.28V246.4C135.563 246.165 135.638 245.973 135.787 245.824C135.937 245.675 136.118 245.6 136.331 245.6H153.099C153.334 245.6 153.526 245.675 153.675 245.824C153.825 245.973 153.899 246.165 153.899 246.4V249.28C153.899 249.493 153.825 249.675 153.675 249.824C153.526 249.973 153.334 250.048 153.099 250.048H147.307V267.2C147.307 267.435 147.233 267.627 147.083 267.776C146.934 267.925 146.742 268 146.507 268H142.955ZM155.487 268C155.274 268 155.092 267.925 154.943 267.776C154.794 267.627 154.719 267.435 154.719 267.2V252.16C154.719 251.947 154.794 251.765 154.943 251.616C155.092 251.445 155.274 251.36 155.487 251.36H158.623C158.836 251.36 159.018 251.445 159.167 251.616C159.338 251.765 159.423 251.947 159.423 252.16V253.44C159.956 252.779 160.607 252.267 161.375 251.904C162.164 251.541 163.071 251.36 164.095 251.36H165.471C165.684 251.36 165.866 251.435 166.015 251.584C166.164 251.733 166.239 251.925 166.239 252.16V254.912C166.239 255.147 166.164 255.339 166.015 255.488C165.866 255.637 165.684 255.712 165.471 255.712H162.655C161.716 255.712 160.98 255.979 160.447 256.512C159.914 257.024 159.647 257.76 159.647 258.72V267.2C159.647 267.435 159.572 267.627 159.423 267.776C159.274 267.925 159.082 268 158.847 268H155.487ZM173.24 268.32C172.109 268.32 171.096 268.107 170.2 267.68C169.304 267.232 168.589 266.635 168.056 265.888C167.523 265.141 167.256 264.309 167.256 263.392C167.256 261.877 167.864 260.683 169.08 259.808C170.317 258.933 171.939 258.336 173.944 258.016L178.136 257.408V256.832C178.136 256 177.944 255.36 177.56 254.912C177.176 254.464 176.504 254.24 175.544 254.24C174.84 254.24 174.275 254.379 173.848 254.656C173.421 254.933 173.091 255.296 172.856 255.744C172.685 256.021 172.44 256.16 172.12 256.16H169.08C168.845 256.16 168.664 256.096 168.536 255.968C168.408 255.819 168.355 255.648 168.376 255.456C168.376 255.093 168.515 254.667 168.792 254.176C169.069 253.685 169.496 253.205 170.072 252.736C170.648 252.245 171.384 251.84 172.28 251.52C173.176 251.2 174.275 251.04 175.576 251.04C176.92 251.04 178.072 251.2 179.032 251.52C179.992 251.84 180.76 252.288 181.336 252.864C181.912 253.44 182.339 254.112 182.616 254.88C182.893 255.627 183.032 256.437 183.032 257.312V267.2C183.032 267.435 182.957 267.627 182.808 267.776C182.659 267.925 182.467 268 182.232 268H179.096C178.883 268 178.701 267.925 178.552 267.776C178.403 267.627 178.328 267.435 178.328 267.2V266.016C178.051 266.421 177.677 266.805 177.208 267.168C176.739 267.509 176.173 267.787 175.512 268C174.872 268.213 174.115 268.32 173.24 268.32ZM174.52 264.992C175.224 264.992 175.853 264.843 176.408 264.544C176.963 264.245 177.4 263.787 177.72 263.168C178.04 262.549 178.2 261.771 178.2 260.832V260.288L175.224 260.768C174.072 260.96 173.229 261.248 172.696 261.632C172.163 262.016 171.896 262.485 171.896 263.04C171.896 263.445 172.013 263.797 172.248 264.096C172.504 264.395 172.835 264.619 173.24 264.768C173.645 264.917 174.072 264.992 174.52 264.992ZM194.299 268.32C192.741 268.32 191.365 268.032 190.171 267.456C188.997 266.88 188.069 266.048 187.387 264.96C186.704 263.851 186.331 262.528 186.267 260.992C186.245 260.651 186.235 260.224 186.235 259.712C186.235 259.179 186.245 258.741 186.267 258.4C186.331 256.843 186.693 255.52 187.355 254.432C188.037 253.323 188.976 252.48 190.171 251.904C191.365 251.328 192.741 251.04 194.299 251.04C195.728 251.04 196.944 251.243 197.947 251.648C198.949 252.032 199.771 252.523 200.411 253.12C201.051 253.717 201.52 254.347 201.819 255.008C202.139 255.648 202.309 256.213 202.331 256.704C202.352 256.917 202.277 257.109 202.107 257.28C201.957 257.429 201.776 257.504 201.563 257.504H198.139C197.925 257.504 197.755 257.451 197.627 257.344C197.52 257.216 197.413 257.045 197.307 256.832C197.008 256.085 196.624 255.552 196.155 255.232C195.685 254.912 195.099 254.752 194.395 254.752C193.435 254.752 192.677 255.061 192.123 255.68C191.568 256.299 191.269 257.259 191.227 258.56C191.205 259.392 191.205 260.149 191.227 260.832C191.291 262.155 191.589 263.115 192.123 263.712C192.677 264.309 193.435 264.608 194.395 264.608C195.141 264.608 195.739 264.448 196.187 264.128C196.635 263.808 197.008 263.275 197.307 262.528C197.392 262.315 197.499 262.155 197.627 262.048C197.755 261.92 197.925 261.856 198.139 261.856H201.563C201.776 261.856 201.957 261.941 202.107 262.112C202.277 262.261 202.352 262.443 202.331 262.656C202.309 263.019 202.203 263.445 202.011 263.936C201.84 264.427 201.552 264.928 201.147 265.44C200.763 265.952 200.261 266.432 199.643 266.88C199.024 267.307 198.267 267.659 197.371 267.936C196.496 268.192 195.472 268.32 194.299 268.32ZM206.269 268C206.034 268 205.842 267.925 205.693 267.776C205.544 267.627 205.469 267.435 205.469 267.2V246.08C205.469 245.845 205.544 245.653 205.693 245.504C205.842 245.355 206.034 245.28 206.269 245.28H209.405C209.618 245.28 209.8 245.355 209.949 245.504C210.098 245.653 210.173 245.845 210.173 246.08V256.896L215.101 251.904C215.272 251.755 215.421 251.627 215.549 251.52C215.698 251.413 215.922 251.36 216.221 251.36H219.837C220.05 251.36 220.221 251.435 220.349 251.584C220.477 251.712 220.541 251.872 220.541 252.064C220.541 252.149 220.52 252.245 220.477 252.352C220.434 252.459 220.36 252.544 220.253 252.608L214.077 258.816L221.053 266.784C221.245 266.955 221.341 267.125 221.341 267.296C221.341 267.488 221.266 267.659 221.117 267.808C220.989 267.936 220.829 268 220.637 268H216.925C216.605 268 216.37 267.947 216.221 267.84C216.093 267.733 215.944 267.605 215.773 267.456L210.173 261.184V267.2C210.173 267.435 210.098 267.627 209.949 267.776C209.8 267.925 209.618 268 209.405 268H206.269ZM224.393 268C224.18 268 223.999 267.925 223.849 267.776C223.7 267.627 223.625 267.435 223.625 267.2V252.16C223.625 251.947 223.7 251.765 223.849 251.616C223.999 251.445 224.18 251.36 224.393 251.36H227.529C227.743 251.36 227.924 251.445 228.073 251.616C228.244 251.765 228.329 251.947 228.329 252.16V253.44C228.863 252.779 229.513 252.267 230.281 251.904C231.071 251.541 231.977 251.36 233.001 251.36H234.377C234.591 251.36 234.772 251.435 234.921 251.584C235.071 251.733 235.145 251.925 235.145 252.16V254.912C235.145 255.147 235.071 255.339 234.921 255.488C234.772 255.637 234.591 255.712 234.377 255.712H231.561C230.623 255.712 229.887 255.979 229.353 256.512C228.82 257.024 228.553 257.76 228.553 258.72V267.2C228.553 267.435 228.479 267.627 228.329 267.776C228.18 267.925 227.988 268 227.753 268H224.393Z" fill="#0F1729"/>
<defs>
<linearGradient id="paint0_linear_1_25" x1="150" y1="37.625" x2="150" y2="216.375" gradientUnits="userSpaceOnUse">
<stop stop-color="#FFBE0B"/>
<stop offset="0.320049" stop-color="#FB5607"/>
<stop offset="0.501633" stop-color="#FF006E"/>
<stop offset="0.815679" stop-color="#8338EC"/>
<stop offset="1" stop-color="#3A86FF"/>
</linearGradient>
</defs>
</svg>
